# Blender v2.74 (sub 0) OBJ File: 'Injection Molder.blend'
# www.blender.org
mtllib injection_molder.mtl
v 0.343750 1.343746 2.937501
v 0.343749 1.343746 2.375000
v 0.655468 1.343746 2.375000
v 0.655469 1.343746 2.937500
v 0.343750 1.656246 2.937501
v 0.343749 1.656246 2.375000
v 0.655468 1.656246 2.375000
v 0.655469 1.656246 2.937500
v 0.406250 1.593746 2.937501
v 0.593750 1.593746 2.937500
v 0.406250 1.406246 2.937501
v 0.593750 1.406246 2.937500
v 0.406250 1.593746 3.000000
v 0.593750 1.593746 3.000000
v 0.406250 1.406246 3.000000
v 0.593750 1.406246 3.000000
v 0.406250 1.593746 2.000001
v 0.593750 1.593746 2.000000
v 0.406250 1.406246 2.000001
v 0.593750 1.406246 2.000000
v 0.406250 1.593746 2.375000
v 0.593750 1.593746 2.375000
v 0.406250 1.406246 2.375000
v 0.593750 1.406246 2.375000
v -0.000000 1.000000 2.000000
v 1.000000 1.000000 2.000000
v -0.000000 1.000000 1.000000
v 1.000000 1.000000 1.000000
v 0.343751 2.000000 1.343767
v 0.718646 2.000000 1.281281
v 0.282240 2.000000 1.718781
v 0.343751 2.000000 1.656282
v 0.344532 1.843747 1.656281
v 0.344531 1.718747 1.656281
v 0.656250 1.718746 1.656281
v 0.344532 1.843746 1.343781
v 0.282240 1.843747 1.718781
v 0.656250 1.843746 1.656281
v 0.718646 1.843746 1.281281
v 0.718646 2.000000 1.718781
v 0.282240 1.843746 1.281281
v 0.406250 1.656246 1.593781
v 0.406250 1.718746 1.593781
v 0.718646 1.843746 1.718781
v 0.406250 1.718746 1.406281
v 0.406250 1.656246 1.406281
v 0.593750 1.718746 1.593781
v 0.593750 1.656246 1.593781
v 0.593750 1.656246 1.406281
v 0.656251 1.906246 1.656281
v 0.656250 1.718746 1.343781
v 0.593750 1.718746 1.406281
v 0.656251 2.000000 1.656281
v 0.656251 2.000000 1.656281
v 0.656251 2.000000 1.343768
v 0.343751 1.906246 1.656282
v 0.343751 2.000000 1.343767
v 0.343751 2.000000 1.656282
v 0.656250 1.843746 1.343781
v 0.343751 2.000000 1.343767
v 0.282240 2.000000 1.281281
v 0.344531 1.718746 1.343781
v 1.000000 -0.000000 2.000000
v 0.750000 1.250000 1.000000
v 0.625000 1.125000 2.000000
v 0.750000 1.125000 2.000000
v 0.625000 1.250000 2.000000
v 0.750000 1.250000 2.000000
v 0.343750 1.406246 1.125000
v 0.343750 1.406246 1.250000
v 0.218750 1.406246 1.250000
v 0.218750 1.406246 1.125000
v 0.343750 1.718746 1.125000
v 0.343750 1.718746 1.250000
v 0.218750 1.718746 1.250000
v 0.218750 1.718746 1.125000
v -0.000000 -0.000000 4.000000
v -0.000000 -0.000000 3.000000
v 1.000000 -0.000000 3.000000
v 1.000000 -0.000000 4.000000
v -0.000000 1.000000 4.000000
v -0.000000 1.000000 3.000000
v 1.000000 1.000000 3.000000
v 1.000000 1.000000 4.000000
v -0.000000 -0.000000 2.000000
v -0.000000 -0.000000 1.000000
v 0.656250 1.343746 1.062500
v 0.656251 1.343746 1.625000
v 0.344532 1.343746 1.625001
v 0.344531 1.343746 1.062500
v 0.656250 1.656246 1.062500
v 0.656251 1.656246 1.625000
v 0.344532 1.656246 1.625001
v 0.344531 1.656246 1.062500
v 0.593750 1.593746 1.062500
v 0.406250 1.593746 1.062500
v 0.593750 1.406246 1.062500
v 0.406250 1.406246 1.062500
v 0.593750 1.593746 1.000000
v 0.406250 1.593746 1.000000
v 0.593750 1.406246 1.000000
v 0.406250 1.406246 1.000000
v -0.000000 -0.000000 0.000000
v 1.000000 -0.000000 0.000000
v 0.937500 1.625000 1.000000
v 1.000000 -0.000000 1.000000
v -0.000000 1.625000 1.000000
v 1.000000 1.625000 0.000000
v -0.000000 1.625000 0.000000
v 1.000000 1.625000 1.000000
v 0.937500 1.687500 1.000000
v 0.937500 1.687500 0.000000
v 0.937500 1.625000 0.000000
v 0.062500 1.625000 1.000000
v 0.062500 1.687500 1.000000
v 0.062500 1.687500 0.000000
v 0.062500 1.625000 0.000000
v 0.937917 1.937917 3.000000
v 0.062508 1.937492 3.000000
v 0.937500 2.000000 3.000000
v 0.062500 2.000000 2.999997
v 0.062500 2.000000 3.999997
v 0.937500 2.000000 4.000000
v 0.062500 2.000000 1.999997
v 0.937500 2.000000 2.000000
v -0.000000 1.937500 4.000000
v 1.000000 1.937500 4.000000
v 1.000000 1.937500 3.000000
v -0.000000 1.937500 3.000000
v -0.000000 1.937500 2.000000
v 1.000000 1.937500 2.000000
v 0.937500 1.937500 2.000000
v 0.062500 1.937500 1.999997
v 0.062500 1.937500 3.999997
v 0.937500 1.937500 4.000000
v 0.593750 1.593746 2.000000
v 0.406250 1.593746 2.000000
v 0.593750 1.406246 2.000000
v 0.406250 1.406246 2.000000
v 0.593750 1.593746 1.625000
v 0.406250 1.593746 1.625000
v 0.593750 1.406246 1.625000
v 0.406250 1.406246 1.625000
v 1.000000 1.000000 0.000000
v -0.000000 1.000000 0.000000
v 0.034020 1.000000 0.000000
v 0.965056 1.000000 0.000000
v 1.000000 1.062499 2.062500
v 1.000000 1.875000 2.062500
v 1.000000 1.875000 3.000000
v 1.000000 1.062500 3.000000
v 0.937500 1.875000 3.000000
v 0.937500 1.062499 2.062500
v 0.937500 1.875000 2.062500
v 0.937500 1.062500 3.000000
v 0.625000 1.250000 1.000000
v 0.750000 1.125000 1.000001
v 0.625000 1.125000 1.000001
v 0.937500 1.750000 2.250000
v 0.937500 1.250000 2.625000
v 0.937500 1.249999 2.250000
v 0.937500 1.750000 2.625000
v 1.000000 0.250000 2.750000
v 1.000000 0.750000 2.750000
v 1.000000 0.750000 2.250000
v 1.000000 0.250000 2.250000
v 0.656251 2.000000 1.343768
v 0.656251 1.906246 1.343768
v 0.343751 2.000000 1.343767
v 0.343751 1.906246 1.343767
vt 0.812500 0.835938
vt 0.804688 0.828125
vt 0.804688 0.804688
vt 0.812500 0.914062
vt 0.812500 0.875000
vt 0.882812 0.875000
vt 0.882812 0.835938
vt 0.882812 0.796875
vt 0.812500 0.796875
vt 0.812500 0.757812
vt 0.921875 0.796875
vt 0.921875 0.835938
vt 0.054688 0.890625
vt 0.078125 0.890625
vt 0.078125 0.898438
vt 0.773438 0.835938
vt 0.781250 0.828125
vt 0.781250 0.804688
vt 0.773438 0.796875
vt 0.054688 0.921875
vt 0.054688 0.898438
vt 0.085938 0.921875
vt 0.078125 0.921875
vt 0.046875 0.898438
vt 0.054688 0.929688
vt 0.882812 0.914062
vt 0.882812 0.757812
vt 0.085938 0.898438
vt 0.046875 0.921875
vt 0.078125 0.929688
vt 0.179688 0.929688
vt 0.179688 0.953125
vt 0.132812 0.953125
vt 0.179688 0.976562
vt 0.132812 0.976562
vt 0.132812 0.929688
vt 0.132812 0.906250
vt 0.179688 1.000000
vt 0.132812 1.000000
vt 0.179688 0.906250
vt 0.773438 0.750000
vt 0.773438 0.875000
vt 0.648438 0.875000
vt 0.257812 0.953125
vt 0.257812 0.992188
vt 0.250000 0.945312
vt 0.304688 1.000000
vt 0.250000 1.000000
vt 0.296875 0.992188
vt 0.296875 0.917969
vt 0.257812 0.917969
vt 0.257812 0.902344
vt 0.250000 0.925781
vt 0.304688 0.925781
vt 0.296875 0.902344
vt 0.332031 0.953125
vt 0.332031 0.992188
vt 0.324219 1.000000
vt 0.304688 0.945312
vt 0.324219 0.945312
vt 0.347656 0.992188
vt 0.347656 0.953125
vt 0.355469 0.984375
vt 0.296875 0.953125
vt 0.265625 0.894531
vt 0.265625 0.886719
vt 0.289062 0.886719
vt 0.355469 0.960938
vt 0.394531 0.980469
vt 0.394531 0.925781
vt 0.449219 0.925781
vt 0.449219 1.000000
vt 0.394531 1.000000
vt 0.449219 0.980469
vt 0.468750 0.925781
vt 0.468750 0.980469
vt 0.363281 0.984375
vt 0.363281 0.960938
vt 0.289062 0.894531
vt 0.507812 0.367188
vt 0.515625 0.484375
vt 0.507812 0.484375
vt 0.000000 0.984375
vt 0.125000 0.984375
vt 0.125000 1.000000
vt 0.328125 0.867188
vt 0.343750 0.867188
vt 0.343750 0.882812
vt 0.328125 0.921875
vt 0.343750 0.921875
vt 0.343750 0.937500
vt 0.375000 0.882812
vt 0.375000 0.921875
vt 0.359375 0.921875
vt 0.359375 0.882812
vt 0.328125 0.882812
vt 0.312500 0.882812
vt 0.250000 0.625000
vt 0.125000 0.625000
vt 0.125000 0.500000
vt 0.515625 0.500000
vt 0.515625 0.625000
vt 0.390625 0.625000
vt 0.960938 0.921875
vt 0.968750 0.929688
vt 0.968750 0.953125
vt 0.960938 0.843750
vt 0.960938 0.882812
vt 0.890625 0.882812
vt 0.890625 0.921875
vt 0.890625 0.960938
vt 0.960938 0.960938
vt 0.960938 1.000000
vt 0.851562 0.960938
vt 0.851562 0.921875
vt 0.007812 0.890625
vt 0.031250 0.890625
vt 0.031250 0.898438
vt 1.000000 0.921875
vt 0.992188 0.929688
vt 0.992188 0.953125
vt 1.000000 0.960938
vt 0.039062 0.921875
vt 0.031250 0.921875
vt 0.000000 0.898438
vt 0.007812 0.898438
vt 0.007812 0.921875
vt 0.007812 0.929688
vt 0.609375 0.804688
vt 0.632812 0.781250
vt 0.632812 0.882812
vt 0.246094 0.125000
vt 0.250000 -0.000000
vt 0.250000 0.125000
vt 0.250000 0.367188
vt 0.375000 0.367188
vt 0.375000 0.492188
vt 0.125000 0.210938
vt -0.000000 0.210938
vt -0.000000 0.203125
vt 0.375000 0.203125
vt 0.375000 0.210938
vt 0.250000 0.210938
vt 0.242188 0.203125
vt 0.242188 0.210938
vt 0.132812 0.210938
vt 0.757812 0.445312
vt 0.757812 0.453125
vt 0.648438 0.453125
vt -0.000000 0.218750
vt 0.125000 0.125000
vt 0.125000 -0.000000
vt 0.128906 0.125000
vt 0.250000 0.218750
vt 0.000000 0.953125
vt 0.000000 0.937500
vt 0.125000 0.937500
vt 0.328125 0.937500
vt 0.312500 0.921875
vt 0.890625 0.843750
vt 0.890625 1.000000
vt 0.039062 0.898438
vt 0.000000 0.921875
vt 0.031250 0.929688
vt 0.648438 0.445312
vt 0.640625 0.367188
vt 0.765625 0.367188
vt 0.625000 0.484375
vt 0.625000 0.492188
vt 0.515625 0.492188
vt -0.000000 0.125000
vt -0.000000 0.750000
vt 0.125000 0.750000
vt 0.125000 0.757812
vt 0.375000 -0.000000
vt 0.375000 0.125000
vt 0.500000 0.367188
vt 0.500000 0.492188
vt 0.250000 0.750000
vt 0.250000 0.757812
vt 0.640625 0.882812
vt -0.000000 0.625000
vt -0.000000 0.500000
vt 0.773438 0.625000
vt 0.648438 0.625000
vt 0.648438 0.500000
vt 0.125000 0.765625
vt 0.125000 0.875000
vt -0.000000 0.875000
vt 0.250000 0.765625
vt 0.375000 0.750000
vt 0.375000 0.757812
vt 0.265625 0.757812
vt 0.390625 0.750000
vt 0.515625 0.742188
vt 0.515625 0.750000
vt 0.515625 0.757812
vt 0.640625 0.750000
vt 0.640625 0.757812
vt 0.632812 0.742188
vt 0.515625 0.765625
vt 0.390625 0.765625
vt 0.226562 0.929688
vt 0.226562 0.906250
vt 0.226562 0.953125
vt 0.226562 0.976562
vt 0.226562 1.000000
vt 0.375000 0.980469
vt 0.125000 0.203125
vt 0.250000 0.203125
vt 0.632812 0.367188
vt 0.632812 0.484375
vt 0.765625 0.445312
vt 0.640625 0.445312
vt 0.632812 0.632812
vt 0.515625 0.632812
vt 0.125000 0.218750
vt 0.125000 0.328125
vt 0.125000 0.367188
vt 0.125000 0.492188
vt -0.000000 0.492188
vt 0.562500 0.804688
vt 0.515625 0.781250
vt 0.562500 0.867188
vt 0.515625 0.882812
vt 0.640625 0.625000
vt 0.515625 0.890625
vt 0.507812 0.781250
vt 0.125000 0.953125
vt 0.125000 0.968750
vt 0.000000 0.968750
vt 0.000000 1.000000
vt 0.609375 0.867188
vt 0.257812 0.625000
vt 0.265625 0.750000
vt 0.257812 0.750000
vt 0.632812 0.773438
vt 0.640625 0.765625
vt 0.546875 0.531250
vt 0.609375 0.531250
vt 0.609375 0.593750
vt -0.000000 0.765625
vt -0.000000 0.757812
vt 0.382812 0.625000
vt 0.382812 0.500000
vt 0.382812 0.750000
vt 0.546875 0.593750
vt 0.640625 0.500000
vt 0.394531 0.906250
vt 0.449219 0.906250
vt 0.375000 0.925781
vt 0.648438 0.750000
vt 0.250000 0.500000
vt 0.390625 0.500000
vt 0.250000 0.492188
vt 0.132812 0.203125
vt 0.375000 0.218750
vt -0.000000 -0.000000
vt 0.640625 0.781250
vt 0.773438 0.500000
vt 0.250000 0.875000
vt 0.390625 0.757812
vt -0.000000 0.328125
vt -0.000000 0.367188
vt 0.632812 0.890625
vt 0.507812 0.882812
vt 0.515625 0.773438
vt 0.257812 0.500000
vn 0.000000 0.000000 1.000000
vn 0.000000 -1.000000 0.000000
vn -1.000000 0.000000 0.000000
vn 1.000000 0.000000 -0.000000
vn 0.000000 1.000000 0.000000
vn -0.000000 0.000000 -1.000000
vn 0.000100 1.000000 0.000000
vn -1.000000 -0.000100 -0.000000
vn 0.006700 1.000000 0.000000
vn 0.000000 1.000000 -0.000400
vn 1.000000 0.006700 0.000000
vn 1.000000 0.000000 -0.000400
vn 0.000000 1.000000 0.000400
vn 1.000000 0.000000 0.000400
usemtl InjectionMolder
#s off
f 5/1/1 9/2/1 10/3/1
f 4/4/2 1/5/2 2/6/2
f 5/1/3 6/7/3 2/6/3
f 7/8/4 8/9/4 4/10/4
f 6/7/5 5/1/5 8/9/5
f 7/8/6 3/11/6 2/12/6
f 11/13/2 12/14/2 16/15/2
f 5/1/1 1/16/1 11/17/1
f 10/3/1 12/18/1 4/19/1
f 13/20/1 15/21/1 16/15/1
f 10/22/4 14/23/4 16/15/4
f 11/24/3 15/21/3 13/20/3
f 9/25/5 13/20/5 14/23/5
f 12/18/1 11/17/1 1/16/1
f 8/9/1 5/1/1 10/3/1
f 3/26/2 4/4/2 2/6/2
f 1/5/3 5/1/3 2/6/3
f 3/27/4 7/8/4 4/10/4
f 7/8/5 6/7/5 8/9/5
f 6/7/6 7/8/6 2/12/6
f 15/21/2 11/13/2 16/15/2
f 9/2/1 5/1/1 11/17/1
f 8/9/1 10/3/1 4/19/1
f 14/23/1 13/20/1 16/15/1
f 12/28/4 10/22/4 16/15/4
f 9/29/3 11/24/3 13/20/3
f 10/30/5 9/25/5 14/23/5
f 4/19/1 12/18/1 1/16/1
f 19/31/2 20/32/2 24/33/2
f 18/34/4 22/35/4 24/33/4
f 19/31/3 23/36/3 21/37/3
f 17/38/5 21/39/5 22/35/5
f 23/36/2 19/31/2 24/33/2
f 20/32/4 18/34/4 24/33/4
f 17/40/3 19/31/3 21/37/3
f 18/34/5 17/38/5 22/35/5
f 27/41/3 86/42/3 85/43/3
f 53/44/5 32/45/5 40/46/5
f 61/47/5 31/48/5 57/49/5
f 59/50/4 38/51/4 35/52/4
f 44/53/4 39/54/4 40/46/4
f 37/53/2 33/51/2 44/54/2
f 33/51/1 34/52/1 35/55/1
f 33/51/2 38/50/2 44/54/2
f 36/56/2 33/57/2 37/58/2
f 37/53/1 44/54/1 40/59/1
f 39/60/6 41/58/6 30/59/6
f 59/56/2 36/57/2 39/60/2
f 62/61/2 51/62/2 45/63/2
f 30/59/5 55/64/5 40/46/5
f 31/48/5 32/45/5 57/49/5
f 36/57/6 59/56/6 51/62/6
f 43/65/1 42/66/1 48/67/1
f 47/65/4 48/66/4 49/67/4
f 51/62/2 52/68/2 45/63/2
f 51/55/2 35/52/2 47/65/2
f 56/69/5 50/70/5 168/71/5
f 169/72/4 58/73/4 170/74/4
f 38/51/2 59/50/2 44/53/2
f 62/62/3 34/61/3 33/57/3
f 61/47/5 60/49/5 30/59/5
f 29/49/5 55/64/5 30/59/5
f 167/75/1 169/76/1 168/71/1
f 31/46/1 37/53/1 40/59/1
f 59/50/2 39/54/2 44/53/2
f 46/77/6 45/63/6 49/78/6
f 62/61/6 36/57/6 51/62/6
f 38/50/1 33/51/1 35/55/1
f 41/60/2 36/56/2 37/58/2
f 34/52/2 43/65/2 35/55/2
f 36/57/2 41/58/2 39/60/2
f 52/79/2 51/55/2 47/65/2
f 55/64/5 53/44/5 40/46/5
f 62/62/2 45/68/2 34/61/2
f 47/79/1 43/65/1 48/67/1
f 51/55/4 59/50/4 35/52/4
f 43/65/2 47/79/2 35/55/2
f 43/63/3 45/68/3 42/77/3
f 45/68/2 43/63/2 34/61/2
f 61/59/3 41/60/3 31/47/3
f 45/63/6 52/68/6 49/78/6
f 39/54/4 30/59/4 40/46/4
f 169/76/1 170/74/1 168/71/1
f 45/68/3 46/78/3 42/77/3
f 52/79/4 47/65/4 49/67/4
f 26/80/6 132/81/6 131/82/6
f 67/83/3 156/84/3 158/85/3
f 69/86/2 70/87/2 71/88/2
f 76/89/5 75/90/5 74/91/5
f 69/92/4 73/93/4 74/94/4
f 70/95/1 74/94/1 75/90/1
f 75/90/3 76/89/3 72/96/3
f 69/97/6 72/96/6 76/89/6
f 81/98/3 82/99/3 78/100/3
f 79/101/4 83/102/4 84/103/4
f 91/104/6 95/105/6 96/106/6
f 90/107/2 87/108/2 88/109/2
f 91/104/4 92/110/4 88/109/4
f 93/111/3 94/112/3 90/113/3
f 92/110/5 91/104/5 94/112/5
f 93/111/1 89/114/1 88/115/1
f 97/116/2 98/117/2 102/118/2
f 91/104/6 87/119/6 97/120/6
f 96/106/6 98/121/6 90/122/6
f 96/123/3 100/124/3 102/118/3
f 97/125/4 101/126/4 99/127/4
f 95/128/5 99/127/5 100/124/5
f 98/121/6 97/120/6 87/119/6
f 161/129/4 153/130/4 154/131/4
f 146/132/6 103/133/6 145/134/6
f 85/135/2 86/136/2 106/137/2
f 113/138/5 105/139/5 110/140/5
f 107/141/5 114/142/5 117/143/5
f 117/144/6 116/145/6 112/146/6
f 105/147/1 111/148/1 115/149/1
f 111/150/4 105/139/4 113/138/4
f 144/151/6 104/152/6 147/153/6
f 116/154/3 117/143/3 114/142/3
f 66/155/2 65/156/2 158/157/2
f 72/96/2 69/86/2 71/88/2
f 73/158/5 76/89/5 74/91/5
f 70/95/4 69/92/4 74/94/4
f 71/88/1 70/95/1 75/90/1
f 71/88/3 75/90/3 72/96/3
f 73/159/6 69/97/6 76/89/6
f 94/112/6 91/104/6 96/106/6
f 89/160/2 90/107/2 88/109/2
f 87/108/4 91/104/4 88/109/4
f 89/161/3 93/111/3 90/113/3
f 93/111/5 92/110/5 94/112/5
f 92/110/1 93/111/1 88/115/1
f 101/126/2 97/116/2 102/118/2
f 95/105/6 91/104/6 97/120/6
f 94/112/6 96/106/6 90/122/6
f 98/162/3 96/123/3 102/118/3
f 95/163/4 97/125/4 99/127/4
f 96/164/5 95/128/5 100/124/5
f 90/122/6 98/121/6 87/119/6
f 114/165/1 27/166/1 28/167/1
f 114/165/1 105/147/1 115/149/1
f 133/168/6 124/169/6 125/170/6
f 104/152/4 144/151/4 28/171/4
f 130/172/7 129/173/7 119/174/7
f 103/133/3 86/175/3 27/176/3
f 103/177/2 104/178/2 106/137/2
f 129/173/5 126/179/5 134/180/5
f 149/181/1 154/131/1 153/130/1
f 82/99/3 25/182/3 85/183/3
f 28/184/4 26/185/4 63/186/4
f 121/187/5 120/188/5 125/189/5
f 122/190/8 121/187/8 119/174/8
f 120/188/5 121/187/5 122/190/5
f 135/191/1 123/192/1 122/193/1
f 127/194/4 150/195/4 128/196/4
f 81/98/3 126/179/3 129/173/3
f 82/99/3 129/173/3 130/172/3
f 127/194/9 128/196/9 118/197/9
f 131/198/10 132/199/10 118/197/10
f 149/200/4 131/198/4 128/196/4
f 118/197/11 120/201/11 123/202/11
f 138/32/2 139/31/2 143/203/2
f 137/40/3 141/204/3 143/203/3
f 138/32/4 142/205/4 140/206/4
f 136/34/5 140/206/5 141/207/5
f 142/205/2 138/32/2 143/203/2
f 139/31/3 137/40/3 143/203/3
f 136/34/4 138/32/4 140/206/4
f 137/38/5 136/34/5 141/207/5
f 41/60/3 37/58/3 31/47/3
f 32/45/5 31/48/5 40/46/5
f 56/69/6 58/208/6 50/70/6
f 36/56/3 62/62/3 33/57/3
f 41/58/6 61/47/6 30/59/6
f 108/209/6 144/151/6 147/153/6
f 146/132/6 145/134/6 109/210/6
f 147/153/6 104/152/6 103/133/6
f 25/211/6 130/212/6 133/168/6
f 105/147/1 28/167/1 110/213/1
f 107/214/1 27/166/1 114/165/1
f 147/153/6 146/132/6 117/144/6
f 110/140/4 28/171/4 144/151/4
f 148/215/4 151/216/4 83/102/4
f 107/141/3 109/210/3 145/134/3
f 111/150/5 112/217/5 116/218/5
f 78/219/2 79/220/2 80/221/2
f 26/185/5 28/184/5 27/41/5
f 160/222/4 155/223/4 153/130/4
f 160/222/4 162/224/4 152/225/4
f 149/200/4 148/215/4 26/226/4
f 84/103/4 151/216/4 150/195/4
f 150/227/2 152/225/2 154/131/2
f 84/103/4 83/102/4 151/216/4
f 151/228/6 155/223/6 152/225/6
f 66/155/4 157/229/4 64/230/4
f 68/231/5 64/230/5 156/84/5
f 157/229/2 66/155/2 158/157/2
f 65/232/3 67/83/3 158/85/3
f 68/231/4 66/155/4 64/230/4
f 67/83/5 68/231/5 156/84/5
f 162/224/4 159/233/4 154/131/4
f 81/234/1 134/235/1 126/236/1
f 148/237/5 153/130/5 155/223/5
f 161/129/4 159/233/4 162/224/4
f 118/197/12 132/199/12 125/238/12
f 79/220/2 78/219/2 85/135/2
f 163/239/4 166/240/4 165/241/4
f 121/187/3 124/242/3 133/243/3
f 25/211/6 133/168/6 132/81/6
f 84/244/1 135/191/1 134/235/1
f 80/245/1 84/244/1 81/234/1
f 84/244/1 127/246/1 135/191/1
f 163/239/4 164/247/4 83/102/4
f 166/240/4 63/248/4 26/226/4
f 163/239/4 79/101/4 63/248/4
f 164/247/4 165/241/4 26/226/4
f 54/249/3 167/250/3 168/71/3
f 170/74/5 56/69/5 168/71/5
f 58/208/6 54/251/6 50/70/6
f 58/73/4 56/69/4 170/74/4
f 50/70/3 54/249/3 168/71/3
f 25/252/3 27/41/3 85/43/3
f 77/253/3 81/98/3 78/100/3
f 80/254/4 79/101/4 84/103/4
f 159/233/4 161/129/4 154/131/4
f 63/255/2 85/135/2 106/137/2
f 108/209/5 113/138/5 110/140/5
f 109/210/5 107/141/5 117/143/5
f 113/256/6 117/144/6 112/146/6
f 112/217/4 111/150/4 113/138/4
f 115/257/3 116/154/3 114/142/3
f 105/147/1 114/165/1 28/167/1
f 132/81/6 133/168/6 125/170/6
f 106/258/4 104/152/4 28/171/4
f 133/243/5 130/172/5 119/174/5
f 145/134/3 103/133/3 27/176/3
f 86/136/2 103/177/2 106/137/2
f 119/174/7 129/173/7 134/180/7
f 148/259/1 149/181/1 153/130/1
f 78/100/3 82/99/3 85/183/3
f 106/260/4 28/184/4 63/186/4
f 124/242/5 121/187/5 125/189/5
f 134/180/3 122/190/3 119/174/3
f 123/261/5 120/188/5 122/190/5
f 134/235/1 135/191/1 122/193/1
f 82/99/3 81/98/3 129/173/3
f 25/182/3 82/99/3 130/172/3
f 135/262/13 127/194/13 118/197/13
f 128/196/9 131/198/9 118/197/9
f 150/195/4 149/200/4 128/196/4
f 135/262/14 118/197/14 123/202/14
f 113/256/6 108/209/6 147/153/6
f 117/144/6 146/132/6 109/210/6
f 146/132/6 147/153/6 103/133/6
f 113/256/6 147/153/6 117/144/6
f 108/209/4 110/140/4 144/151/4
f 26/226/4 148/215/4 83/102/4
f 27/176/3 107/141/3 145/134/3
f 115/263/5 111/150/5 116/218/5
f 77/264/2 78/219/2 80/221/2
f 25/252/5 26/185/5 27/41/5
f 161/129/4 160/222/4 153/130/4
f 155/223/4 160/222/4 152/225/4
f 131/198/4 149/200/4 26/226/4
f 127/194/4 84/103/4 150/195/4
f 149/265/2 150/227/2 154/131/2
f 150/266/6 151/228/6 152/225/6
f 152/225/4 162/224/4 154/131/4
f 151/267/5 148/237/5 155/223/5
f 160/222/4 161/129/4 162/224/4
f 120/201/11 118/197/11 125/238/11
f 63/255/2 79/220/2 85/135/2
f 164/247/4 163/239/4 165/241/4
f 119/174/8 121/187/8 133/243/8
f 26/80/6 25/211/6 132/81/6
f 81/234/1 84/244/1 134/235/1
f 77/268/1 80/245/1 81/234/1
f 79/101/4 163/239/4 83/102/4
f 165/241/4 166/240/4 26/226/4
f 166/240/4 163/239/4 63/248/4
f 83/102/4 164/247/4 26/226/4
