# Blender v2.74 (sub 0) OBJ File: 'Furnace.blend'
# www.blender.org
mtllib Furnace.mtl
o Furnace_Tri_Cube.015
v -0.062500 0.312500 0.687500
v -0.062500 0.312500 0.750000
v -0.125000 0.312500 0.687500
v -0.125000 0.312500 0.750000
v -0.062500 0.125000 0.687500
v -0.062500 0.125000 0.750000
v -0.125000 0.125000 0.687500
v -0.125000 0.125000 0.750000
v -0.062500 0.875000 0.687500
v -0.062500 0.875000 0.750000
v -0.125000 0.875000 0.687500
v -0.125000 0.875000 0.750000
v -0.062500 0.687500 0.687500
v -0.062500 0.687500 0.750000
v -0.125000 0.687500 0.687500
v -0.125000 0.687500 0.750000
v 0.000000 0.062500 0.062500
v 0.000000 0.062500 0.687500
v 0.000000 0.937500 0.062500
v 0.000000 0.937500 0.687500
v -0.125000 0.937500 0.062500
v -0.125000 0.062500 0.062500
v -0.125000 0.937500 0.687500
v -0.125000 0.062500 0.687500
v -0.125000 0.000000 1.000000
v -0.125000 1.000000 0.000000
v -0.125000 0.187500 0.562500
v -0.125000 0.812500 0.562500
v -0.125000 0.812500 0.187500
v -0.125000 0.187500 0.187500
v -0.125000 0.187500 0.875000
v -0.062500 0.187500 0.875000
v -0.062500 0.187500 0.937500
v -0.125000 0.187500 0.937500
v -0.125000 0.250000 0.875000
v -0.062500 0.250000 0.875000
v -0.062500 0.250000 0.937500
v -0.125000 0.250000 0.937500
v -0.125000 0.312500 0.875000
v -0.062500 0.312500 0.875000
v -0.062500 0.312500 0.937500
v -0.125000 0.312500 0.937500
v -0.125000 0.375000 0.875000
v -0.062500 0.375000 0.875000
v -0.062500 0.375000 0.937500
v -0.125000 0.375000 0.937500
v -0.125000 0.437500 0.875000
v -0.062500 0.437500 0.875000
v -0.062500 0.437500 0.937500
v -0.125000 0.437500 0.937500
v -0.125000 0.500000 0.875000
v -0.062500 0.500000 0.875000
v -0.062500 0.500000 0.937500
v -0.125000 0.500000 0.937500
v -0.125000 0.562500 0.875000
v -0.062500 0.562500 0.875000
v -0.062500 0.562500 0.937500
v -0.125000 0.562500 0.937500
v -0.125000 0.625000 0.875000
v -0.062500 0.625000 0.875000
v -0.062500 0.625000 0.937500
v -0.125000 0.625000 0.937500
v -1.000000 0.000000 1.000000
v -1.000000 0.000000 0.000000
v -0.125000 0.000000 0.000000
v -1.000000 1.000000 1.000000
v -1.000000 1.000000 0.000000
v -0.125000 1.000000 1.000000
v -0.812500 0.187500 0.562500
v -0.812500 0.812500 0.562500
v -0.812500 0.812500 0.187500
v -0.812500 0.187500 0.187500
v -0.125000 0.375000 0.562500
v -0.125000 0.375000 0.187500
v -0.812500 0.375000 0.562500
v -0.812500 0.375000 0.187500
v -0.125000 0.312500 0.562500
v -0.125000 0.312500 0.187500
v -0.062500 0.312500 0.687500
v -0.062500 0.312500 0.750000
v -0.062500 0.312500 0.750000
v -0.125000 0.312500 0.750000
v -0.062500 0.125000 0.750000
v -0.062500 0.125000 0.750000
v -0.062500 0.125000 0.687500
v -0.125000 0.125000 0.750000
v -0.062500 0.875000 0.687500
v -0.062500 0.875000 0.750000
v -0.062500 0.875000 0.750000
v -0.125000 0.875000 0.750000
v -0.062500 0.687500 0.750000
v -0.062500 0.687500 0.750000
v -0.062500 0.687500 0.687500
v -0.125000 0.687500 0.750000
v 0.000000 0.937500 0.062500
v 0.000000 0.937500 0.062500
v 0.000000 0.062500 0.062500
v 0.000000 0.062500 0.062500
v 0.000000 0.937500 0.687500
v 0.000000 0.937500 0.687500
v 0.000000 0.062500 0.687500
v 0.000000 0.062500 0.687500
v -0.125000 0.062500 0.687500
v -0.125000 0.062500 0.062500
v -0.125000 0.937500 0.687500
v -0.125000 0.937500 0.062500
v -1.000000 0.000000 1.000000
v -1.000000 0.000000 1.000000
v -0.125000 0.000000 1.000000
v -0.125000 0.000000 1.000000
v -0.125000 0.187500 0.562500
v -0.125000 0.187500 0.562500
v -0.125000 0.187500 0.562500
v -0.125000 0.812500 0.562500
v -0.125000 0.812500 0.562500
v -0.125000 0.812500 0.187500
v -0.125000 0.812500 0.187500
v -0.125000 0.812500 0.187500
v -0.125000 0.187500 0.187500
v -0.125000 0.187500 0.187500
v -1.000000 1.000000 0.000000
v -1.000000 1.000000 0.000000
v -0.125000 1.000000 0.000000
v -0.125000 1.000000 0.000000
v -0.125000 0.000000 0.000000
v -0.125000 0.000000 0.000000
v -0.125000 0.187500 0.875000
v -0.125000 0.187500 0.875000
v -0.062500 0.187500 0.875000
v -0.062500 0.187500 0.875000
v -0.125000 0.187500 0.937500
v -0.125000 0.187500 0.937500
v -0.125000 0.250000 0.875000
v -0.125000 0.250000 0.875000
v -0.062500 0.187500 0.937500
v -0.062500 0.187500 0.937500
v -0.062500 0.250000 0.875000
v -0.062500 0.250000 0.875000
v -0.062500 0.250000 0.937500
v -0.062500 0.250000 0.937500
v -0.125000 0.250000 0.937500
v -0.125000 0.250000 0.937500
v -0.125000 0.312500 0.875000
v -0.125000 0.312500 0.875000
v -0.062500 0.312500 0.875000
v -0.062500 0.312500 0.875000
v -0.125000 0.312500 0.937500
v -0.125000 0.312500 0.937500
v -0.125000 0.375000 0.875000
v -0.125000 0.375000 0.875000
v -0.062500 0.312500 0.937500
v -0.062500 0.312500 0.937500
v -0.062500 0.375000 0.875000
v -0.062500 0.375000 0.875000
v -0.062500 0.375000 0.937500
v -0.062500 0.375000 0.937500
v -0.125000 0.375000 0.937500
v -0.125000 0.375000 0.937500
v -0.125000 0.437500 0.875000
v -0.125000 0.437500 0.875000
v -0.062500 0.437500 0.875000
v -0.062500 0.437500 0.875000
v -0.125000 0.437500 0.937500
v -0.125000 0.437500 0.937500
v -0.125000 0.500000 0.875000
v -0.125000 0.500000 0.875000
v -0.062500 0.437500 0.937500
v -0.062500 0.437500 0.937500
v -0.062500 0.500000 0.875000
v -0.062500 0.500000 0.875000
v -0.062500 0.500000 0.937500
v -0.062500 0.500000 0.937500
v -0.125000 0.500000 0.937500
v -0.125000 0.500000 0.937500
v -0.125000 0.562500 0.875000
v -0.125000 0.562500 0.875000
v -0.062500 0.562500 0.875000
v -0.062500 0.562500 0.875000
v -0.125000 0.562500 0.937500
v -0.125000 0.562500 0.937500
v -0.125000 0.625000 0.875000
v -0.125000 0.625000 0.875000
v -0.062500 0.562500 0.937500
v -0.062500 0.562500 0.937500
v -0.062500 0.625000 0.875000
v -0.062500 0.625000 0.875000
v -0.062500 0.625000 0.937500
v -0.062500 0.625000 0.937500
v -0.125000 0.625000 0.937500
v -0.125000 0.625000 0.937500
v -1.000000 1.000000 1.000000
v -1.000000 1.000000 1.000000
v -1.000000 0.000000 0.000000
v -1.000000 0.000000 0.000000
v -0.125000 1.000000 1.000000
v -0.125000 1.000000 1.000000
v -0.812500 0.187500 0.562500
v -0.812500 0.187500 0.562500
v -0.812500 0.812500 0.562500
v -0.812500 0.812500 0.562500
v -0.812500 0.812500 0.562500
v -0.812500 0.812500 0.187500
v -0.812500 0.812500 0.187500
v -0.812500 0.187500 0.187500
v -0.812500 0.187500 0.187500
v -0.812500 0.187500 0.187500
v -0.125000 0.375000 0.187500
v -0.125000 0.375000 0.562500
vt 0.281250 0.664062
vt 0.273438 0.664062
vt 0.273438 0.656250
vt 0.273438 0.632812
vt 0.281250 0.632812
vt 0.265625 0.656250
vt 0.265625 0.632812
vt 0.273438 0.625000
vt 0.281250 0.625000
vt 0.281250 0.718750
vt 0.273438 0.718750
vt 0.273438 0.710938
vt 0.273438 0.687500
vt 0.281250 0.687500
vt 0.265625 0.710938
vt 0.265625 0.687500
vt 0.273438 0.679688
vt 0.281250 0.679688
vt 0.296875 0.726562
vt 0.296875 0.617188
vt 0.375000 0.617188
vt 0.296875 0.601562
vt 0.375000 0.601562
vt 0.281250 0.726562
vt 0.281250 0.617188
vt 0.375000 0.742188
vt 0.296875 0.742188
vt 0.390625 0.617188
vt 0.390625 0.726562
vt 0.375000 0.726562
vt 0.250000 0.875000
vt 0.250000 0.984375
vt 0.125000 0.984375
vt 0.171875 0.375000
vt 0.171875 0.460938
vt 0.125000 0.460938
vt 0.250000 0.750000
vt 0.359375 0.750000
vt 0.250000 0.640625
vt 0.125000 0.750000
vt 0.015625 0.875000
vt 0.015625 0.750000
vt 0.226562 0.851562
vt 0.226562 0.773438
vt 0.179688 0.773438
vt 0.484375 0.875000
vt 0.359375 0.875000
vt 0.179688 0.851562
vt 0.125000 0.875000
vt 0.171875 0.539062
vt 0.257812 0.539062
vt 0.125000 0.625000
vt 0.125000 0.539062
vt 0.039062 0.460938
vt 0.109375 0.914062
vt 0.109375 1.000000
vt 0.062500 1.000000
vt 0.062500 0.914062
vt 0.062500 0.906250
vt 0.109375 0.906250
vt 0.281250 0.656250
vt 0.281250 0.710938
vt 0.125000 0.375000
vt 0.125000 0.640625
vt 0.484375 0.750000
vt 0.257812 0.460938
vt 0.171875 0.625000
vt 0.039062 0.539062
vt 0.046875 0.898438
vt 0.046875 0.906250
vt 0.039062 0.906250
vt 0.039062 0.921875
vt 0.039062 0.914062
vt 0.046875 0.914062
vt 0.054688 0.914062
vt 0.031250 0.914062
vt 0.039062 0.898438
vt 0.039062 0.890625
vt 0.015625 0.898438
vt 0.015625 0.906250
vt 0.007812 0.906250
vt 0.007812 0.921875
vt 0.007812 0.914062
vt 0.015625 0.914062
vt 0.023438 0.914062
vt -0.000000 0.914062
vt 0.007812 0.898438
vt 0.007812 0.890625
vt 0.015625 0.937500
vt 0.015625 0.945312
vt 0.007812 0.945312
vt 0.007812 0.960938
vt 0.007812 0.953125
vt 0.015625 0.953125
vt 0.023438 0.953125
vt -0.000000 0.953125
vt 0.007812 0.937500
vt 0.007812 0.929688
vt 0.015625 0.976562
vt 0.015625 0.984375
vt 0.007812 0.984375
vt 0.007812 1.000000
vt 0.007812 0.992188
vt 0.015625 0.992188
vt 0.023438 0.992188
vt 0.000000 0.992188
vt 0.007812 0.976562
vt 0.007812 0.968750
vt 0.046875 0.921875
vt 0.054688 0.906250
vt 0.031250 0.906250
vt 0.046875 0.890625
vt 0.015625 0.921875
vt 0.023438 0.906250
vt -0.000000 0.906250
vt 0.015625 0.890625
vt 0.015625 0.960938
vt 0.023438 0.945312
vt -0.000000 0.945312
vt 0.015625 0.929688
vt 0.015625 1.000000
vt 0.023438 0.984375
vt 0.000000 0.984375
vt 0.015625 0.968750
vn 0.000000 1.000000 0.000000
vn 1.000000 0.000000 0.000000
vn 0.000000 0.000000 1.000000
vn 0.000000 -1.000000 0.000000
vn 0.000000 0.000000 -1.000000
vn -1.000000 0.000000 0.000000
usemtl Furnace
s off
f 3/1/1 4/2/1 2/3/1
f 80/3/2 6/4/2 5/5/2
f 82/6/3 8/7/3 83/4/3
f 86/8/4 7/9/4 85/5/4
f 11/10/1 12/11/1 10/12/1
f 88/12/2 14/13/2 13/14/2
f 90/15/3 16/16/3 91/13/3
f 94/17/4 15/18/4 93/14/4
f 20/19/2 18/20/2 17/21/2
f 103/22/4 104/23/4 97/21/4
f 105/24/3 24/25/3 101/20/3
f 106/26/1 23/27/1 99/19/1
f 22/28/5 21/29/5 95/30/5
f 26/31/1 67/32/1 191/33/1
f 119/34/1 204/35/1 197/36/1
f 124/31/5 125/37/5 194/38/5
f 193/39/4 65/37/4 110/40/4
f 66/41/3 63/42/3 25/40/3
f 29/43/2 30/44/2 126/37/2
f 126/37/2 30/44/2 27/45/2
f 192/46/6 121/47/6 64/38/6
f 28/48/2 29/43/2 123/31/2
f 27/45/2 28/48/2 196/49/2
f 198/36/2 72/35/2 202/50/2
f 116/51/3 203/50/3 205/35/3
f 114/52/4 199/53/4 71/50/4
f 111/54/5 69/36/5 70/53/5
f 74/55/1 76/56/1 75/57/1
f 208/58/2 77/59/2 78/60/2
f 1/61/1 3/1/1 2/3/1
f 79/61/2 80/3/2 5/5/2
f 81/3/3 82/6/3 83/4/3
f 84/4/4 86/8/4 85/5/4
f 9/62/1 11/10/1 10/12/1
f 87/62/2 88/12/2 13/14/2
f 89/12/3 90/15/3 91/13/3
f 92/13/4 94/17/4 93/14/4
f 19/30/2 20/19/2 17/21/2
f 102/20/4 103/22/4 97/21/4
f 100/19/3 105/24/3 101/20/3
f 96/30/1 106/26/1 99/19/1
f 98/21/5 22/28/5 95/30/5
f 68/49/1 26/31/1 191/33/1
f 113/63/1 119/34/1 197/36/1
f 122/47/5 124/31/5 194/38/5
f 107/64/4 193/39/4 110/40/4
f 195/49/3 66/41/3 25/40/3
f 123/31/2 29/43/2 126/37/2
f 109/40/2 126/37/2 27/45/2
f 108/65/6 192/46/6 64/38/6
f 196/49/2 28/48/2 123/31/2
f 109/40/2 27/45/2 196/49/2
f 200/53/2 198/36/2 202/50/2
f 120/66/3 118/51/3 206/35/3
f 117/67/4 114/52/4 71/50/4
f 115/68/5 112/54/5 201/53/5
f 73/58/1 74/55/1 75/57/1
f 207/55/2 208/58/2 78/60/2
s 1
f 31/69/4 32/70/4 33/71/4
f 141/72/1 139/73/1 137/74/1
f 35/75/5 36/74/5 129/70/5
f 138/74/2 37/73/2 135/71/2
f 136/71/3 140/73/3 142/76/3
f 127/69/6 34/77/6 38/78/6
f 39/79/4 40/80/4 41/81/4
f 157/82/1 155/83/1 153/84/1
f 43/85/5 44/84/5 145/80/5
f 154/84/2 45/83/2 151/81/2
f 152/81/3 156/83/3 158/86/3
f 143/79/6 42/87/6 46/88/6
f 47/89/4 48/90/4 49/91/4
f 173/92/1 171/93/1 169/94/1
f 51/95/5 52/94/5 161/90/5
f 170/94/2 53/93/2 167/91/2
f 168/91/3 172/93/3 174/96/3
f 159/89/6 50/97/6 54/98/6
f 55/99/4 56/100/4 57/101/4
f 189/102/1 187/103/1 185/104/1
f 59/105/5 60/104/5 177/100/5
f 186/104/2 61/103/2 183/101/2
f 184/101/3 188/103/3 190/106/3
f 175/99/6 58/107/6 62/108/6
f 131/77/4 31/69/4 33/71/4
f 133/109/1 141/72/1 137/74/1
f 128/110/5 35/75/5 129/70/5
f 130/70/2 138/74/2 135/71/2
f 132/111/3 136/71/3 142/76/3
f 134/112/6 127/69/6 38/78/6
f 147/87/4 39/79/4 41/81/4
f 149/113/1 157/82/1 153/84/1
f 144/114/5 43/85/5 145/80/5
f 146/80/2 154/84/2 151/81/2
f 148/115/3 152/81/3 158/86/3
f 150/116/6 143/79/6 46/88/6
f 163/97/4 47/89/4 49/91/4
f 165/117/1 173/92/1 169/94/1
f 160/118/5 51/95/5 161/90/5
f 162/90/2 170/94/2 167/91/2
f 164/119/3 168/91/3 174/96/3
f 166/120/6 159/89/6 54/98/6
f 179/107/4 55/99/4 57/101/4
f 181/121/1 189/102/1 185/104/1
f 176/122/5 59/105/5 177/100/5
f 178/100/2 186/104/2 183/101/2
f 180/123/3 184/101/3 190/106/3
f 182/124/6 175/99/6 62/108/6
